:version 1.10
:name ASF
:units
  mass 1
  length 1
  angle deg
:documentation
  ASF file generated by Kaydara
:root
  axis xyz
  order  tx ty tz rx ry rz
  position 0 0 0
  orientation 0 0 0
:bonedata
  begin
    id 1
    name RightUpLegDummy
    direction -0.718183 -0.695806 0.00816078
    length 4.904
    axis 0 0 0 xyz
  end
  begin
    id 2
    name RightUpLeg
    direction 3.53989e-006 -0.995788 0.0916897
    length 17.4976
    axis -3.49089 -0.000906621 0.000287158 xyz
    dof rx ry rz
  end
  begin
    id 3
    name RightLeg
    direction 0.00371093 -0.995096 -0.0988418
    length 16.5821
    axis 3.68512 0.0193738 -0.131023 xyz
    dof rx ry rz
  end
  begin
    id 4
    name RightFoot
    direction 0.000791514 -0.46099 0.887405
    length 3.77069
    axis 4.84075e-005 -0.120479 -0.188788 xyz
    dof rx ry rz
  end
  begin
    id 5
    name RightToes
    direction 0.00124746 -0.014064 0.9999
    length 3.85082
    axis 0.00048216 0.542163 -0.142577 xyz
    dof rx ry rz
  end
  begin
    id 6
    name SpineDummy
    direction 8.36599e-015 1 5.97571e-016
    length 4.6813
    axis 0 0 0 xyz
  end
  begin
    id 7
    name Spine
    direction -4.63632e-008 0.999988 0.00495137
    length 10.1015
    axis -0.00138897 0.000121419 3.25764e-006 xyz
    dof rx ry rz
  end
  begin
    id 8
    name Spine1
    direction 0 0 0
    length 0
    axis -0.00138896 0.000121452 2.39764e-006 xyz
    dof rx ry rz
  end
  begin
    id 9
    name HEadDummy
    direction -3.91456e-008 0.999999 0.00127422
    length 3.43865
    axis -0.00138896 0.000121452 2.39764e-006 xyz
  end
  begin
    id 10
    name HEad
    direction -0.0222688 0.980941 0.193023
    length 5.12695
    axis -0.00138895 0.000121452 2.39764e-006 xyz
    dof rx ry rz
  end
  begin
    id 11
    name LeftShoulder1Dummy
    direction 0.998891 -0.0402508 -0.0244456
    length 3.5433
    axis -0.00138896 0.000121452 2.39764e-006 xyz
  end
  begin
    id 12
    name LeftShoulder1
    direction 0.99951 -0.000327743 0.0313091
    length 4.05031
    axis -0.00138896 0.000121452 2.39764e-006 xyz
    dof rx ry rz
  end
  begin
    id 13
    name LeftArm
    direction 0.998561 -0.00100054 -0.0536182
    length 10.3537
    axis -23.1894 0.134784 0.96751 xyz
    dof rx ry rz
  end
  begin
    id 14
    name LeftForeArm
    direction 0.998903 0.00866434 0.046012
    length 8.70632
    axis -9.91835 -0.06569 -0.177792 xyz
    dof rx ry rz
  end
  begin
    id 15
    name LeftHand
    direction 0.992938 -0.0411636 0.11126
    length 5.32135
    axis -0.00960227 -0.00340091 0.185174 xyz
    dof rx ry rz
  end
  begin
    id 16
    name RightShoulderDummy
    direction -0.998891 -0.0402509 -0.0244414
    length 3.5433
    axis -0.00138896 0.000121452 2.39764e-006 xyz
  end
  begin
    id 17
    name RightShoulder
    direction -0.99951 -0.000327827 0.0313133
    length 4.05031
    axis 0.215806 0.000203644 -0.00680151 xyz
    dof rx ry rz
  end
  begin
    id 18
    name RightArm
    direction -0.998573 -0.000999583 -0.053403
    length 10.3947
    axis -23.2009 -0.134239 -0.9641 xyz
    dof rx ry rz
  end
  begin
    id 19
    name RightForeArm
    direction -0.998898 0.00868026 0.0461306
    length 8.68355
    axis -9.92322 0.0658061 0.178869 xyz
    dof rx ry rz
  end
  begin
    id 20
    name RightHand
    direction -0.992843 -0.0414603 0.112003
    length 5.28593
    axis -0.00960634 0.00330671 -0.185226 xyz
    dof rx ry rz
  end
  begin
    id 21
    name LeftUpLegDummy
    direction 0.718183 -0.695806 0.00816078
    length 4.904
    axis 0 0 0 xyz
  end
  begin
    id 22
    name LeftUpLeg
    direction -6.8115e-006 -0.995793 0.0916336
    length 17.4976
    axis -3.48766 0.00143441 -0.000523914 xyz
    dof rx ry rz
  end
  begin
    id 23
    name LeftLeg
    direction -0.00601357 -0.995091 -0.0987824
    length 16.5821
    axis 3.68177 -0.00654038 -0.00028478 xyz
    dof rx ry rz
  end
  begin
    id 24
    name LeftFoot
    direction -0.00417578 -0.460984 0.887399
    length 3.77069
    axis 1.87232e-006 4.66002e-005 -8.1837e-006 xyz
    dof rx ry rz
  end
  begin
    id 25
    name LeftToes
    direction 0.00818058 -0.00485161 0.999955
    length 3.85048
    axis 1.06246e-005 4.65855e-005 -8.18502e-006 xyz
    dof rx ry rz
  end
:hierarchy
  begin
    root RightUpLegDummy SpineDummy LeftUpLegDummy
    RightUpLegDummy RightUpLeg
    RightUpLeg RightLeg
    RightLeg RightFoot
    RightFoot RightToes
    SpineDummy Spine
    Spine Spine1
    Spine1 HEadDummy LeftShoulder1Dummy RightShoulderDummy
    HEadDummy HEad
    LeftShoulder1Dummy LeftShoulder1
    LeftShoulder1 LeftArm
    LeftArm LeftForeArm
    LeftForeArm LeftHand
    RightShoulderDummy RightShoulder
    RightShoulder RightArm
    RightArm RightForeArm
    RightForeArm RightHand
    LeftUpLegDummy LeftUpLeg
    LeftUpLeg LeftLeg
    LeftLeg LeftFoot
    LeftFoot LeftToes
  end

:SAMPLES-PER-SECOND 30
:FULLY-SPECIFIED
:DEGREES
1
root  -3.36388 41.0277 0.00645907 140.919 -89.0068 -138.918
RightUpLeg  1.67687 -1.00393 -0.694783
RightLeg  -5.95553 -19.8175 3.12661
RightFoot  3.02226 -0.228355 1.92955
RightToes  -3.1126e-008 1.75238e-005 3.56266e-009
Spine  10.6329 0.553862 -3.83853
Spine1  -16.2563 0.174238 4.69115
HEad  1.7431 -1.5539 1.33601
LeftShoulder1  0.651418 0.869631 -18.1075
LeftArm  -18.8956 -14.001 -36.1392
LeftForeArm  99.9863 -79.8247 -99.1114
LeftHand  -0.48919 -2.97529 7.02337
RightShoulder  0.940068 0.307278 18.2215
RightArm  -7.07086 6.94638 25.6746
RightForeArm  103.258 77.3285 121.08
RightHand  0.147578 8.22984 0.87084
LeftUpLeg  1.40356 1.61283 3.61772
LeftLeg  -3.66897 17.2907 -1.33628
LeftFoot  1.55982 0.392168 -3.52724
LeftToes  4.78049e-008 1.46235e-008 1.34219e-009
2
root  -3.35004 41.0274 0.00789412 146.623 -88.9575 -144.693
RightUpLeg  1.64844 -1.04487 -0.752227
RightLeg  -5.79095 -19.6799 3.03907
RightFoot  2.98495 -0.2358 2.04234
RightToes  -3.1126e-008 1.75238e-005 3.56266e-009
Spine  10.5411 0.549259 -3.92866
Spine1  -16.1583 0.167794 4.61609
HEad  1.55468 -1.96925 1.12879
LeftShoulder1  0.681765 0.751015 -18.1476
LeftArm  -18.4622 -16.5824 -38.0176
LeftForeArm  101.108 -79.8624 -99.2982
LeftHand  -0.535509 -3.27691 7.414
RightShoulder  1.00482 0.519051 18.5545
RightArm  -5.51429 7.22819 26.8051
RightForeArm  104.956 77.2985 121.693
RightHand  0.174877 8.5358 1.06214
LeftUpLeg  1.52232 1.58848 3.56496
LeftLeg  -3.77837 17.4046 -1.3823
LeftFoot  1.5877 0.393922 -3.56296
LeftToes  4.78049e-008 1.46235e-008 1.34219e-009
3
root  -3.33504 41.027 0.0120033 151.841 -88.9011 -149.949
RightUpLeg  1.61018 -1.08791 -0.819799
RightLeg  -5.67959 -19.5162 2.98822
RightFoot  2.93486 -0.238422 2.07961
RightToes  -3.1126e-008 1.75238e-005 3.56266e-009
Spine  10.6795 0.525754 -3.93739
Spine1  -16.4354 0.158039 4.44451
HEad  1.8172 -1.92839 1.49607
LeftShoulder1  0.682333 0.730453 -17.97
LeftArm  -17.8608 -18.5065 -39.9767
LeftForeArm  105.832 -79.7432 -103.477
LeftHand  -0.566981 -3.43754 7.68994
RightShoulder  1.02983 0.594553 18.715
RightArm  -3.34624 6.60557 28.1622
RightForeArm  107.276 76.7658 125.052
RightHand  0.0746972 7.89033 0.281479
LeftUpLeg  1.53393 1.54828 3.49337
LeftLeg  -3.73843 17.5313 -1.36855
LeftFoot  1.61004 0.393027 -3.55677
LeftToes  4.78049e-008 1.46235e-008 1.34219e-009
4
root  -3.32174 41.0266 0.0122493 153.25 -88.8769 -151.429
RightUpLeg  1.65427 -1.12992 -0.846332
RightLeg  -5.66376 -19.4526 3.0023
RightFoot  2.94563 -0.236198 2.04084
RightToes  -3.1126e-008 1.75238e-005 3.56266e-009
Spine  10.5821 0.41192 -4.01303
Spine1  -16.2152 0.0381224 4.43883
HEad  1.6114 -1.88844 1.53351
LeftShoulder1  0.687755 0.726045 -18.1396
LeftArm  -17.5719 -20.2861 -41.3581
LeftForeArm  111.226 -79.5303 -108.294
LeftHand  -0.461448 -2.88231 6.71331
RightShoulder  1.09683 0.802773 19.0698
RightArm  -1.69134 5.99841 29.3805
RightForeArm  108.742 76.793 125.281
RightHand  0.130387 7.89837 0.759623
LeftUpLeg  1.57865 1.54685 3.47791
LeftLeg  -3.69337 17.5813 -1.35389
LeftFoot  1.61053 0.388549 -3.49414
LeftToes  4.78049e-008 1.46235e-008 1.34219e-009
5
root  -3.31591 41.0261 0.00716168 151.786 -88.807 -150.089
RightUpLeg  1.81151 -1.0886 -0.767525
RightLeg  -5.74294 -19.4521 3.01917
RightFoot  2.97886 -0.234047 2.00219
RightToes  -3.1126e-008 1.75238e-005 3.56266e-009
Spine  10.5069 0.254206 -4.05932
Spine1  -16.0202 -0.12527 4.46777
HEad  1.37523 -1.56785 1.14922
LeftShoulder1  0.676117 0.774298 -18.1485
LeftArm  -17.4482 -21.7339 -42.4561
LeftForeArm  117.327 -79.1717 -113.82
LeftHand  -0.522567 -3.16006 7.33216
RightShoulder  1.23419 1.25079 19.5998
RightArm  -0.156648 5.05014 30.2775
RightForeArm  109.531 76.7501 125.681
RightHand  0.171068 8.39011 1.05498
LeftUpLeg  1.64606 1.63778 3.5705
LeftLeg  -3.55305 17.5196 -1.32763
LeftFoot  1.5105 0.394283 -3.58984
LeftToes  4.78049e-008 1.46235e-008 1.34219e-009
6
root  -3.30973 41.0251 0.00236305 153.038 -88.6824 -151.486
RightUpLeg  1.96637 -1.06478 -0.720606
RightLeg  -5.77994 -19.3438 3.01358
RightFoot  2.99091 -0.232281 1.96832
RightToes  -3.1126e-008 1.75238e-005 3.56266e-009
Spine  10.7124 0.257221 -3.98698
Spine1  -16.2482 -0.112228 4.33533
HEad  1.42672 -1.85857 1.19516
LeftShoulder1  0.741944 0.545484 -18.4868
LeftArm  -17.4365 -22.8239 -42.7865
LeftForeArm  123.517 -78.6232 -119.768
LeftHand  -0.568619 -3.70814 7.52026
RightShoulder  1.31577 1.52604 19.8065
RightArm  1.26559 3.42739 31.3682
RightForeArm  109.709 76.877 125.125
RightHand  0.159731 8.66425 0.927184
LeftUpLeg  1.78127 1.71613 3.63365
LeftLeg  -3.47974 17.5462 -1.3255
LeftFoot  1.45603 0.392807 -3.57257
LeftToes  4.78049e-008 1.46235e-008 1.34219e-009
7
root  -3.29236 41.0211 -0.00066388 153.17 -88.5678 -151.746
RightUpLeg  2.07155 -1.00976 -0.648496
RightLeg  -5.79284 -19.3132 2.99135
RightFoot  2.9978 -0.230215 1.92842
RightToes  -3.1126e-008 1.75238e-005 3.56266e-009
Spine  10.718 0.306804 -4.09958
Spine1  -16.1619 -0.0791155 4.47808
HEad  1.50307 -2.19071 1.15812
LeftShoulder1  0.777425 0.442672 -18.8307
LeftArm  -17.6165 -23.94 -43.3266
LeftForeArm  128.423 -78.139 -124.002
LeftHand  -0.548809 -4.06151 7.00927
RightShoulder  1.39451 1.76812 20.1194
RightArm  2.62519 1.64179 31.928
RightForeArm  109.878 77.1238 123.96
RightHand  0.17112 8.45826 1.04497
LeftUpLeg  1.84302 1.76127 3.6856
LeftLeg  -3.32606 17.6057 -1.2569
LeftFoot  1.3481 0.39925 -3.67792
LeftToes  4.78049e-008 1.46235e-008 1.34219e-009
8
root  -3.28054 41.0226 0.000734675 155.987 -88.4383 -154.593
RightUpLeg  2.01856 -1.01826 -0.667105
RightLeg  -5.66895 -19.1536 2.9436
RightFoot  2.97083 -0.235075 1.99446
RightToes  -3.1126e-008 1.75238e-005 3.56266e-009
Spine  10.6979 0.380271 -4.27239
Spine1  -16.133 -0.0216567 4.6148
HEad  1.40594 -2.21133 1.00095
LeftShoulder1  0.796065 0.373466 -18.8669
LeftArm  -18.0019 -24.7264 -43.2996
LeftForeArm  132.539 -77.4689 -128.367
LeftHand  -0.57002 -3.92906 7.35974
RightShoulder  1.40528 1.74817 20.4501
RightArm  4.04923 -0.390912 32.18
RightForeArm  109.363 77.3182 122.828
RightHand  0.168151 8.61479 0.99509
LeftUpLeg  1.8642 1.74661 3.66767
LeftLeg  -3.28327 17.7773 -1.23489
LeftFoot  1.30859 0.410747 -3.86126
LeftToes  4.78049e-008 1.46235e-008 1.34219e-009
9
root  -3.27107 41.0211 0.00499942 158.507 -88.3319 -157.163
RightUpLeg  1.99655 -1.021 -0.689412
RightLeg  -5.55499 -18.9997 2.87232
RightFoot  2.93053 -0.236735 2.00916
RightToes  -3.1126e-008 1.75238e-005 3.56266e-009
Spine  10.7799 0.398494 -4.15652
Spine1  -16.2258 0.0123638 4.36685
HEad  1.38949 -2.09726 0.851933
LeftShoulder1  0.802453 0.345194 -18.8388
LeftArm  -18.9531 -25.4046 -43.0011
LeftForeArm  135.055 -76.8237 -131.665
LeftHand  -0.506248 -3.49378 6.86718
RightShoulder  1.38398 1.60596 20.8028
RightArm  5.67488 -2.65146 32.3887
RightForeArm  107.786 77.3049 122.46
RightHand  0.0809615 8.00425 0.327113
LeftUpLeg  1.85582 1.76024 3.64323
LeftLeg  -3.14259 17.8902 -1.21294
LeftFoot  1.23757 0.401069 -3.7141
LeftToes  4.78049e-008 1.46235e-008 1.34219e-009
10
root  -3.2682 41.0184 0.00910324 158.216 -88.2911 -156.971
RightUpLeg  2.09456 -1.02999 -0.678893
RightLeg  -5.54949 -18.953 2.87056
RightFoot  2.93547 -0.236559 1.9935
RightToes  -3.1126e-008 1.75238e-005 3.56266e-009
Spine  10.9407 0.394802 -4.18632
Spine1  -16.3411 0.00172431 4.46829
HEad  1.68007 -2.32759 0.827449
LeftShoulder1  0.737956 0.5761 -18.6213
LeftArm  -19.9865 -25.6353 -43.0858
LeftForeArm  137.377 -76.3695 -133.885
LeftHand  -0.579907 -4.29956 7.22766
RightShoulder  1.40408 1.64003 21.029
RightArm  6.77982 -4.87981 32.2059
RightForeArm  106.65 77.6188 120.4
RightHand  0.165781 8.12054 1.04179
LeftUpLeg  1.93687 1.82195 3.68714
LeftLeg  -3.06868 17.8271 -1.22073
LeftFoot  1.15917 0.408579 -3.83386
LeftToes  4.78049e-008 1.46235e-008 1.34219e-009
11
root  -3.2633 41.0165 0.0148262 157.187 -88.281 -156.005
RightUpLeg  2.17575 -1.01758 -0.654155
RightLeg  -5.58891 -18.9583 2.87942
RightFoot  2.92595 -0.237988 2.00071
RightToes  -3.1126e-008 1.75238e-005 3.56266e-009
Spine  10.9403 0.309413 -4.13023
Spine1  -16.2885 -0.0798299 4.43079
HEad  1.66357 -2.02055 0.7866
LeftShoulder1  0.6612 0.851827 -18.3234
LeftArm  -21.3432 -25.887 -42.8318
LeftForeArm  138.269 -76.0292 -135.241
LeftHand  -0.561609 -4.14662 7.11076
RightShoulder  1.43178 1.69065 21.3163
RightArm  7.9166 -7.09605 31.9097
RightForeArm  104.598 77.9814 117.585
RightHand  0.111231 8.15444 0.572175
LeftUpLeg  1.93774 1.88349 3.73285
LeftLeg  -2.93137 17.7349 -1.20966
LeftFoot  1.06394 0.404252 -3.76852
LeftToes  4.78049e-008 1.46235e-008 1.34219e-009
12
root  -3.26319 41.0167 0.0238465 155.687 -88.3345 -154.52
RightUpLeg  2.20285 -1.01998 -0.643463
RightLeg  -5.6054 -19.0405 2.89034
RightFoot  2.93812 -0.240176 1.99887
RightToes  -3.1126e-008 1.75238e-005 3.56266e-009
Spine  10.9317 0.235121 -3.97932
Spine1  -16.2551 -0.141017 4.29928
HEad  1.62611 -1.41328 0.776562
LeftShoulder1  0.603277 1.06175 -18.078
LeftArm  -22.9827 -25.6288 -41.7915
LeftForeArm  139.479 -75.5722 -136.963
LeftHand  -0.546977 -3.91457 7.09173
RightShoulder  1.39478 1.55726 21.3132
RightArm  9.05728 -9.50911 31.6591
RightForeArm  102.759 78.1511 115.859
RightHand  0.0878228 8.27625 0.361094
LeftUpLeg  1.87245 1.9091 3.75397
LeftLeg  -2.76702 17.6067 -1.17236
LeftFoot  0.992478 0.405269 -3.7856
LeftToes  4.78049e-008 1.46235e-008 1.34219e-009
13
root  -3.2615 41.0173 0.0316495 157.064 -88.4192 -155.874
RightUpLeg  2.09984 -1.07917 -0.731272
RightLeg  -5.43192 -19.0502 2.82076
RightFoot  2.8825 -0.249221 2.12292
RightToes  -3.1126e-008 1.75238e-005 3.56266e-009
Spine  10.8928 0.213934 -4.05643
Spine1  -16.2061 -0.170318 4.43421
HEad  1.58683 -1.42995 0.701961
LeftShoulder1  0.597178 1.08789 -18.0913
LeftArm  -24.8003 -25.0882 -40.6898
LeftForeArm  139.967 -75.2547 -138.016
LeftHand  -0.517923 -3.58527 6.95502
RightShoulder  1.36319 1.44764 21.2865
RightArm  10.2061 -11.4034 31.1883
RightForeArm  100.35 78.3536 113.585
RightHand  0.0818967 7.9149 0.345443
LeftUpLeg  1.90128 1.85638 3.67562
LeftLeg  -2.9123 17.5944 -1.24567
LeftFoot  1.03992 0.398833 -3.68583
LeftToes  4.78049e-008 1.46235e-008 1.34219e-009
14
root  -3.25999 41.0165 0.0313578 152.256 -88.6278 -151.06
RightUpLeg  2.14519 -1.08772 -0.720774
RightLeg  -5.49004 -19.2714 2.87016
RightFoot  2.85889 -0.244235 2.11757
RightToes  -3.1126e-008 1.75238e-005 3.56266e-009
Spine  10.7713 0.0913219 -4.05418
Spine1  -16.0494 -0.295328 4.49882
HEad  1.5144 -1.06754 0.717829
LeftShoulder1  0.604837 1.06155 -18.1434
LeftArm  -27.1053 -24.2739 -39.1518
LeftForeArm  139.613 -75.0875 -138.431
LeftHand  -0.511511 -3.47528 6.93782
RightShoulder  1.35204 1.41715 21.2246
RightArm  10.6411 -13.2245 30.7418
RightForeArm  97.5431 78.7045 109.663
RightHand  0.370996 8.39343 2.6887
LeftUpLeg  1.80363 1.90893 3.72808
LeftLeg  -2.78615 17.2349 -1.24471
LeftFoot  0.995632 0.401408 -3.72557
LeftToes  4.78049e-008 1.46235e-008 1.34219e-009
15
root  -3.26062 41.0118 0.024119 140.266 -88.9171 -139.092
RightUpLeg  2.30399 -1.08126 -0.664379
RightLeg  -5.69315 -19.644 2.99871
RightFoot  2.84883 -0.222766 1.94504
RightToes  -3.1126e-008 1.75238e-005 3.56266e-009
Spine  10.5665 0.0236543 -4.18788
Spine1  -15.6556 -0.393702 4.85667
HEad  1.39217 -1.28912 0.608865
LeftShoulder1  0.584441 1.15891 -18.3109
LeftArm  -29.3684 -23.3598 -37.6617
LeftForeArm  138.548 -75.1268 -138.105
LeftHand  -0.596046 -3.9944 7.64258
RightShoulder  1.28993 1.2568 20.8245
RightArm  10.151 -14.6851 30.5183
RightForeArm  92.1694 79.0528 103.961
RightHand  0.86919 9.38988 6.37548
LeftUpLeg  1.64663 1.9521 3.80744
LeftLeg  -2.53198 16.7666 -1.1497
LeftFoot  0.873148 0.411828 -3.88665
LeftToes  4.78049e-008 1.46235e-008 1.34219e-009
